<mxfile host="8dc3212f-ed44-4e56-b4eb-1f8cc83d33e2" modified="2020-09-29T07:09:48.180Z" agent="5.0 (Macintosh; Intel Mac OS X 10_15_7) AppleWebKit/537.36 (KHTML, like Gecko) Code/1.49.2 Chrome/83.0.4103.122 Electron/9.2.1 Safari/537.36" etag="U0MqIlHtWl5ERntQ-5i_" version="13.6.5">
    <diagram id="R2lEEEUBdFMjLlhIrx00" name="Page-1">
        <mxGraphModel dx="1438" dy="1443" grid="1" gridSize="10" guides="1" tooltips="1" connect="1" arrows="1" fold="1" page="1" pageScale="1" pageWidth="850" pageHeight="1100" math="0" shadow="0" extFonts="Permanent Marker^https://fonts.googleapis.com/css?family=Permanent+Marker">
            <root>
                <mxCell id="0"/>
                <mxCell id="1" parent="0"/>
                <mxCell id="XqIFykhKaimXrxazFcBB-3" value="afspraak&amp;nbsp;service" style="rounded=0;whiteSpace=wrap;html=1;align=left;fillColor=none;verticalAlign=top;dashed=1;" parent="1" vertex="1">
                    <mxGeometry x="-580" y="-560" width="280" height="205" as="geometry"/>
                </mxCell>
                <mxCell id="XqIFykhKaimXrxazFcBB-2" value="organisatie&amp;nbsp;service" style="rounded=0;whiteSpace=wrap;html=1;align=left;fillColor=none;verticalAlign=top;dashed=1;" parent="1" vertex="1">
                    <mxGeometry x="-280" y="-560" width="250" height="150" as="geometry"/>
                </mxCell>
                <mxCell id="XqIFykhKaimXrxazFcBB-1" value="&lt;b&gt;gebruikers&amp;nbsp;service &lt;/b&gt;(burger entity will later be replaced by the BRP service)" style="rounded=0;whiteSpace=wrap;html=1;align=left;fillColor=none;verticalAlign=top;dashed=1;" parent="1" vertex="1">
                    <mxGeometry x="-670" y="-1080" width="630" height="440" as="geometry"/>
                </mxCell>
                <mxCell id="RH9Z0IbQgSgg3mMqHIIC-17" style="edgeStyle=orthogonalEdgeStyle;rounded=0;orthogonalLoop=1;jettySize=auto;html=1;endArrow=ERone;endFill=0;startArrow=ERmany;startFill=0;exitX=0;exitY=0.5;exitDx=0;exitDy=0;entryX=1;entryY=0.5;entryDx=0;entryDy=0;" parent="1" source="RH9Z0IbQgSgg3mMqHIIC-14" target="RH9Z0IbQgSgg3mMqHIIC-2" edge="1">
                    <mxGeometry relative="1" as="geometry">
                        <Array as="points">
                            <mxPoint x="-660" y="-945"/>
                            <mxPoint x="-660" y="-680"/>
                            <mxPoint x="-625" y="-680"/>
                        </Array>
                    </mxGeometry>
                </mxCell>
                <mxCell id="RH9Z0IbQgSgg3mMqHIIC-71" style="edgeStyle=orthogonalEdgeStyle;rounded=0;orthogonalLoop=1;jettySize=auto;html=1;startArrow=ERmany;startFill=0;endArrow=ERone;endFill=0;" parent="1" source="RH9Z0IbQgSgg3mMqHIIC-52" target="RH9Z0IbQgSgg3mMqHIIC-59" edge="1">
                    <mxGeometry relative="1" as="geometry"/>
                </mxCell>
                <mxCell id="RH9Z0IbQgSgg3mMqHIIC-72" style="edgeStyle=orthogonalEdgeStyle;rounded=0;orthogonalLoop=1;jettySize=auto;html=1;startArrow=ERmany;startFill=0;endArrow=ERone;endFill=0;entryX=1;entryY=0.5;entryDx=0;entryDy=0;exitX=0;exitY=0.5;exitDx=0;exitDy=0;" parent="1" source="RH9Z0IbQgSgg3mMqHIIC-55" target="RH9Z0IbQgSgg3mMqHIIC-2" edge="1">
                    <mxGeometry relative="1" as="geometry">
                        <Array as="points">
                            <mxPoint x="-600" y="-399.5"/>
                            <mxPoint x="-600" y="-487.5"/>
                        </Array>
                    </mxGeometry>
                </mxCell>
                <mxCell id="RH9Z0IbQgSgg3mMqHIIC-74" style="edgeStyle=orthogonalEdgeStyle;rounded=0;orthogonalLoop=1;jettySize=auto;html=1;startArrow=ERone;startFill=0;endArrow=ERmany;endFill=0;" parent="1" source="C-vyLk0tnHw3VtMMgP7b-24" target="RH9Z0IbQgSgg3mMqHIIC-49" edge="1">
                    <mxGeometry relative="1" as="geometry">
                        <Array as="points">
                            <mxPoint x="-380" y="-1005"/>
                            <mxPoint x="-380" y="-567"/>
                            <mxPoint x="-445" y="-567"/>
                        </Array>
                    </mxGeometry>
                </mxCell>
                <mxCell id="XqIFykhKaimXrxazFcBB-4" value="iban service" style="rounded=0;whiteSpace=wrap;html=1;align=left;fillColor=none;verticalAlign=top;dashed=1;" parent="1" vertex="1">
                    <mxGeometry x="-840" y="-560" width="230" height="177.5" as="geometry"/>
                </mxCell>
                <mxCell id="XqIFykhKaimXrxazFcBB-6" value="&lt;h1&gt;HHB ERD&lt;/h1&gt;&lt;div&gt;Services and entity relation ship overview.&lt;/div&gt;&lt;div&gt;&lt;br&gt;&lt;/div&gt;&lt;div&gt;services represent the 2nd layer in the CG layer model.&lt;/div&gt;&lt;div&gt;&lt;br&gt;&lt;/div&gt;&lt;div&gt;entities represent the 1st layer in the CG layer model.&lt;/div&gt;&lt;p&gt;&lt;br&gt;&lt;/p&gt;" style="text;html=1;strokeColor=none;fillColor=none;spacing=5;spacingTop=-20;whiteSpace=wrap;overflow=hidden;rounded=0;dashed=1;" parent="1" vertex="1">
                    <mxGeometry x="-840" y="-1080" width="140" height="210" as="geometry"/>
                </mxCell>
                <mxCell id="C-vyLk0tnHw3VtMMgP7b-2" value="Burger" style="shape=table;startSize=30;container=1;collapsible=1;childLayout=tableLayout;fixedRows=1;rowLines=0;fontStyle=1;align=center;resizeLast=1;" parent="1" vertex="1">
                    <mxGeometry x="-340" y="-1050" width="280" height="400" as="geometry"/>
                </mxCell>
                <mxCell id="C-vyLk0tnHw3VtMMgP7b-3" value="" style="shape=partialRectangle;collapsible=0;dropTarget=0;pointerEvents=0;fillColor=none;points=[[0,0.5],[1,0.5]];portConstraint=eastwest;top=0;left=0;right=0;bottom=1;" parent="C-vyLk0tnHw3VtMMgP7b-2" vertex="1">
                    <mxGeometry y="30" width="280" height="30" as="geometry"/>
                </mxCell>
                <mxCell id="C-vyLk0tnHw3VtMMgP7b-4" value="PK" style="shape=partialRectangle;overflow=hidden;connectable=0;fillColor=none;top=0;left=0;bottom=0;right=0;fontStyle=1;" parent="C-vyLk0tnHw3VtMMgP7b-3" vertex="1">
                    <mxGeometry width="30" height="30" as="geometry"/>
                </mxCell>
                <mxCell id="C-vyLk0tnHw3VtMMgP7b-5" value="burger_id int NOT NULL" style="shape=partialRectangle;overflow=hidden;connectable=0;fillColor=none;top=0;left=0;bottom=0;right=0;align=left;spacingLeft=6;fontStyle=5;" parent="C-vyLk0tnHw3VtMMgP7b-3" vertex="1">
                    <mxGeometry x="30" width="250" height="30" as="geometry"/>
                </mxCell>
                <mxCell id="EfVEdd5nO3h6JBvLjB9O-1" style="shape=partialRectangle;collapsible=0;dropTarget=0;pointerEvents=0;fillColor=none;points=[[0,0.5],[1,0.5]];portConstraint=eastwest;top=0;left=0;right=0;bottom=0;" parent="C-vyLk0tnHw3VtMMgP7b-2" vertex="1">
                    <mxGeometry y="60" width="280" height="30" as="geometry"/>
                </mxCell>
                <mxCell id="EfVEdd5nO3h6JBvLjB9O-2" style="shape=partialRectangle;overflow=hidden;connectable=0;fillColor=none;top=0;left=0;bottom=0;right=0;" parent="EfVEdd5nO3h6JBvLjB9O-1" vertex="1">
                    <mxGeometry width="30" height="30" as="geometry"/>
                </mxCell>
                <mxCell id="EfVEdd5nO3h6JBvLjB9O-3" value="burgerservicenummer char(9) NOT NULL" style="shape=partialRectangle;overflow=hidden;connectable=0;fillColor=none;top=0;left=0;bottom=0;right=0;align=left;spacingLeft=6;" parent="EfVEdd5nO3h6JBvLjB9O-1" vertex="1">
                    <mxGeometry x="30" width="250" height="30" as="geometry"/>
                </mxCell>
                <mxCell id="RH9Z0IbQgSgg3mMqHIIC-18" style="shape=partialRectangle;collapsible=0;dropTarget=0;pointerEvents=0;fillColor=none;points=[[0,0.5],[1,0.5]];portConstraint=eastwest;top=0;left=0;right=0;bottom=0;" parent="C-vyLk0tnHw3VtMMgP7b-2" vertex="1">
                    <mxGeometry y="90" width="280" height="30" as="geometry"/>
                </mxCell>
                <mxCell id="RH9Z0IbQgSgg3mMqHIIC-19" style="shape=partialRectangle;overflow=hidden;connectable=0;fillColor=none;top=0;left=0;bottom=0;right=0;" parent="RH9Z0IbQgSgg3mMqHIIC-18" vertex="1">
                    <mxGeometry width="30" height="30" as="geometry"/>
                </mxCell>
                <mxCell id="RH9Z0IbQgSgg3mMqHIIC-20" value="voornamen char(100) NOT NULL" style="shape=partialRectangle;overflow=hidden;connectable=0;fillColor=none;top=0;left=0;bottom=0;right=0;align=left;spacingLeft=6;" parent="RH9Z0IbQgSgg3mMqHIIC-18" vertex="1">
                    <mxGeometry x="30" width="250" height="30" as="geometry"/>
                </mxCell>
                <mxCell id="XqIFykhKaimXrxazFcBB-24" style="shape=partialRectangle;collapsible=0;dropTarget=0;pointerEvents=0;fillColor=none;points=[[0,0.5],[1,0.5]];portConstraint=eastwest;top=0;left=0;right=0;bottom=0;" parent="C-vyLk0tnHw3VtMMgP7b-2" vertex="1">
                    <mxGeometry y="120" width="280" height="30" as="geometry"/>
                </mxCell>
                <mxCell id="XqIFykhKaimXrxazFcBB-25" style="shape=partialRectangle;overflow=hidden;connectable=0;fillColor=none;top=0;left=0;bottom=0;right=0;" parent="XqIFykhKaimXrxazFcBB-24" vertex="1">
                    <mxGeometry width="30" height="30" as="geometry"/>
                </mxCell>
                <mxCell id="XqIFykhKaimXrxazFcBB-26" value="voorletters char(100) NOT NULL" style="shape=partialRectangle;overflow=hidden;connectable=0;fillColor=none;top=0;left=0;bottom=0;right=0;align=left;spacingLeft=6;" parent="XqIFykhKaimXrxazFcBB-24" vertex="1">
                    <mxGeometry x="30" width="250" height="30" as="geometry"/>
                </mxCell>
                <mxCell id="RH9Z0IbQgSgg3mMqHIIC-21" style="shape=partialRectangle;collapsible=0;dropTarget=0;pointerEvents=0;fillColor=none;points=[[0,0.5],[1,0.5]];portConstraint=eastwest;top=0;left=0;right=0;bottom=0;" parent="C-vyLk0tnHw3VtMMgP7b-2" vertex="1">
                    <mxGeometry y="150" width="280" height="30" as="geometry"/>
                </mxCell>
                <mxCell id="RH9Z0IbQgSgg3mMqHIIC-22" style="shape=partialRectangle;overflow=hidden;connectable=0;fillColor=none;top=0;left=0;bottom=0;right=0;" parent="RH9Z0IbQgSgg3mMqHIIC-21" vertex="1">
                    <mxGeometry width="30" height="30" as="geometry"/>
                </mxCell>
                <mxCell id="RH9Z0IbQgSgg3mMqHIIC-23" value="voorvoegsel char(100) " style="shape=partialRectangle;overflow=hidden;connectable=0;fillColor=none;top=0;left=0;bottom=0;right=0;align=left;spacingLeft=6;" parent="RH9Z0IbQgSgg3mMqHIIC-21" vertex="1">
                    <mxGeometry x="30" width="250" height="30" as="geometry"/>
                </mxCell>
                <mxCell id="XqIFykhKaimXrxazFcBB-27" style="shape=partialRectangle;collapsible=0;dropTarget=0;pointerEvents=0;fillColor=none;points=[[0,0.5],[1,0.5]];portConstraint=eastwest;top=0;left=0;right=0;bottom=0;" parent="C-vyLk0tnHw3VtMMgP7b-2" vertex="1">
                    <mxGeometry y="180" width="280" height="30" as="geometry"/>
                </mxCell>
                <mxCell id="XqIFykhKaimXrxazFcBB-28" style="shape=partialRectangle;overflow=hidden;connectable=0;fillColor=none;top=0;left=0;bottom=0;right=0;" parent="XqIFykhKaimXrxazFcBB-27" vertex="1">
                    <mxGeometry width="30" height="30" as="geometry"/>
                </mxCell>
                <mxCell id="XqIFykhKaimXrxazFcBB-29" value="geslachtsnaam char(100) NOT NULL" style="shape=partialRectangle;overflow=hidden;connectable=0;fillColor=none;top=0;left=0;bottom=0;right=0;align=left;spacingLeft=6;" parent="XqIFykhKaimXrxazFcBB-27" vertex="1">
                    <mxGeometry x="30" width="250" height="30" as="geometry"/>
                </mxCell>
                <mxCell id="RH9Z0IbQgSgg3mMqHIIC-24" style="shape=partialRectangle;collapsible=0;dropTarget=0;pointerEvents=0;fillColor=none;points=[[0,0.5],[1,0.5]];portConstraint=eastwest;top=0;left=0;right=0;bottom=0;" parent="C-vyLk0tnHw3VtMMgP7b-2" vertex="1">
                    <mxGeometry y="210" width="280" height="30" as="geometry"/>
                </mxCell>
                <mxCell id="RH9Z0IbQgSgg3mMqHIIC-25" value="" style="shape=partialRectangle;overflow=hidden;connectable=0;fillColor=none;top=0;left=0;bottom=0;right=0;" parent="RH9Z0IbQgSgg3mMqHIIC-24" vertex="1">
                    <mxGeometry width="30" height="30" as="geometry"/>
                </mxCell>
                <mxCell id="RH9Z0IbQgSgg3mMqHIIC-26" value="straatnaam char(250) NOT NULL" style="shape=partialRectangle;overflow=hidden;connectable=0;fillColor=none;top=0;left=0;bottom=0;right=0;align=left;spacingLeft=6;" parent="RH9Z0IbQgSgg3mMqHIIC-24" vertex="1">
                    <mxGeometry x="30" width="250" height="30" as="geometry"/>
                </mxCell>
                <mxCell id="XqIFykhKaimXrxazFcBB-30" style="shape=partialRectangle;collapsible=0;dropTarget=0;pointerEvents=0;fillColor=none;points=[[0,0.5],[1,0.5]];portConstraint=eastwest;top=0;left=0;right=0;bottom=0;" parent="C-vyLk0tnHw3VtMMgP7b-2" vertex="1">
                    <mxGeometry y="240" width="280" height="30" as="geometry"/>
                </mxCell>
                <mxCell id="XqIFykhKaimXrxazFcBB-31" style="shape=partialRectangle;overflow=hidden;connectable=0;fillColor=none;top=0;left=0;bottom=0;right=0;" parent="XqIFykhKaimXrxazFcBB-30" vertex="1">
                    <mxGeometry width="30" height="30" as="geometry"/>
                </mxCell>
                <mxCell id="XqIFykhKaimXrxazFcBB-32" value="huisnummer int NOT NULL" style="shape=partialRectangle;overflow=hidden;connectable=0;fillColor=none;top=0;left=0;bottom=0;right=0;align=left;spacingLeft=6;" parent="XqIFykhKaimXrxazFcBB-30" vertex="1">
                    <mxGeometry x="30" width="250" height="30" as="geometry"/>
                </mxCell>
                <mxCell id="XqIFykhKaimXrxazFcBB-33" style="shape=partialRectangle;collapsible=0;dropTarget=0;pointerEvents=0;fillColor=none;points=[[0,0.5],[1,0.5]];portConstraint=eastwest;top=0;left=0;right=0;bottom=0;" parent="C-vyLk0tnHw3VtMMgP7b-2" vertex="1">
                    <mxGeometry y="270" width="280" height="30" as="geometry"/>
                </mxCell>
                <mxCell id="XqIFykhKaimXrxazFcBB-34" style="shape=partialRectangle;overflow=hidden;connectable=0;fillColor=none;top=0;left=0;bottom=0;right=0;" parent="XqIFykhKaimXrxazFcBB-33" vertex="1">
                    <mxGeometry width="30" height="30" as="geometry"/>
                </mxCell>
                <mxCell id="XqIFykhKaimXrxazFcBB-35" value="huisletter char(5)" style="shape=partialRectangle;overflow=hidden;connectable=0;fillColor=none;top=0;left=0;bottom=0;right=0;align=left;spacingLeft=6;" parent="XqIFykhKaimXrxazFcBB-33" vertex="1">
                    <mxGeometry x="30" width="250" height="30" as="geometry"/>
                </mxCell>
                <mxCell id="XqIFykhKaimXrxazFcBB-36" style="shape=partialRectangle;collapsible=0;dropTarget=0;pointerEvents=0;fillColor=none;points=[[0,0.5],[1,0.5]];portConstraint=eastwest;top=0;left=0;right=0;bottom=0;" parent="C-vyLk0tnHw3VtMMgP7b-2" vertex="1">
                    <mxGeometry y="300" width="280" height="30" as="geometry"/>
                </mxCell>
                <mxCell id="XqIFykhKaimXrxazFcBB-37" style="shape=partialRectangle;overflow=hidden;connectable=0;fillColor=none;top=0;left=0;bottom=0;right=0;" parent="XqIFykhKaimXrxazFcBB-36" vertex="1">
                    <mxGeometry width="30" height="30" as="geometry"/>
                </mxCell>
                <mxCell id="XqIFykhKaimXrxazFcBB-38" value="huistoevoeging char(100)" style="shape=partialRectangle;overflow=hidden;connectable=0;fillColor=none;top=0;left=0;bottom=0;right=0;align=left;spacingLeft=6;" parent="XqIFykhKaimXrxazFcBB-36" vertex="1">
                    <mxGeometry x="30" width="250" height="30" as="geometry"/>
                </mxCell>
                <mxCell id="RH9Z0IbQgSgg3mMqHIIC-27" style="shape=partialRectangle;collapsible=0;dropTarget=0;pointerEvents=0;fillColor=none;points=[[0,0.5],[1,0.5]];portConstraint=eastwest;top=0;left=0;right=0;bottom=0;" parent="C-vyLk0tnHw3VtMMgP7b-2" vertex="1">
                    <mxGeometry y="330" width="280" height="30" as="geometry"/>
                </mxCell>
                <mxCell id="RH9Z0IbQgSgg3mMqHIIC-28" style="shape=partialRectangle;overflow=hidden;connectable=0;fillColor=none;top=0;left=0;bottom=0;right=0;" parent="RH9Z0IbQgSgg3mMqHIIC-27" vertex="1">
                    <mxGeometry width="30" height="30" as="geometry"/>
                </mxCell>
                <mxCell id="RH9Z0IbQgSgg3mMqHIIC-29" value="postcode char(6) NOT NULL" style="shape=partialRectangle;overflow=hidden;connectable=0;fillColor=none;top=0;left=0;bottom=0;right=0;align=left;spacingLeft=6;" parent="RH9Z0IbQgSgg3mMqHIIC-27" vertex="1">
                    <mxGeometry x="30" width="250" height="30" as="geometry"/>
                </mxCell>
                <mxCell id="RH9Z0IbQgSgg3mMqHIIC-30" style="shape=partialRectangle;collapsible=0;dropTarget=0;pointerEvents=0;fillColor=none;points=[[0,0.5],[1,0.5]];portConstraint=eastwest;top=0;left=0;right=0;bottom=0;" parent="C-vyLk0tnHw3VtMMgP7b-2" vertex="1">
                    <mxGeometry y="360" width="280" height="30" as="geometry"/>
                </mxCell>
                <mxCell id="RH9Z0IbQgSgg3mMqHIIC-31" style="shape=partialRectangle;overflow=hidden;connectable=0;fillColor=none;top=0;left=0;bottom=0;right=0;" parent="RH9Z0IbQgSgg3mMqHIIC-30" vertex="1">
                    <mxGeometry width="30" height="30" as="geometry"/>
                </mxCell>
                <mxCell id="RH9Z0IbQgSgg3mMqHIIC-32" value="woonplaatsnaam char(100) NOT NULL" style="shape=partialRectangle;overflow=hidden;connectable=0;fillColor=none;top=0;left=0;bottom=0;right=0;align=left;spacingLeft=6;" parent="RH9Z0IbQgSgg3mMqHIIC-30" vertex="1">
                    <mxGeometry x="30" width="250" height="30" as="geometry"/>
                </mxCell>
                <mxCell id="C-vyLk0tnHw3VtMMgP7b-23" value="Gebruiker" style="shape=table;startSize=30;container=1;collapsible=1;childLayout=tableLayout;fixedRows=1;rowLines=0;fontStyle=1;align=center;resizeLast=1;" parent="1" vertex="1">
                    <mxGeometry x="-650" y="-1050" width="230" height="220" as="geometry">
                        <mxRectangle x="120" y="150" width="90" height="30" as="alternateBounds"/>
                    </mxGeometry>
                </mxCell>
                <mxCell id="C-vyLk0tnHw3VtMMgP7b-24" value="" style="shape=partialRectangle;collapsible=0;dropTarget=0;pointerEvents=0;fillColor=none;points=[[0,0.5],[1,0.5]];portConstraint=eastwest;top=0;left=0;right=0;bottom=1;" parent="C-vyLk0tnHw3VtMMgP7b-23" vertex="1">
                    <mxGeometry y="30" width="230" height="30" as="geometry"/>
                </mxCell>
                <mxCell id="C-vyLk0tnHw3VtMMgP7b-25" value="PK" style="shape=partialRectangle;overflow=hidden;connectable=0;fillColor=none;top=0;left=0;bottom=0;right=0;fontStyle=1;" parent="C-vyLk0tnHw3VtMMgP7b-24" vertex="1">
                    <mxGeometry width="30" height="30" as="geometry"/>
                </mxCell>
                <mxCell id="C-vyLk0tnHw3VtMMgP7b-26" value="gebruiker_id int NOT NULL " style="shape=partialRectangle;overflow=hidden;connectable=0;fillColor=none;top=0;left=0;bottom=0;right=0;align=left;spacingLeft=6;fontStyle=5;" parent="C-vyLk0tnHw3VtMMgP7b-24" vertex="1">
                    <mxGeometry x="30" width="200" height="30" as="geometry"/>
                </mxCell>
                <mxCell id="RH9Z0IbQgSgg3mMqHIIC-14" style="shape=partialRectangle;collapsible=0;dropTarget=0;pointerEvents=0;fillColor=none;points=[[0,0.5],[1,0.5]];portConstraint=eastwest;top=0;left=0;right=0;bottom=0;" parent="C-vyLk0tnHw3VtMMgP7b-23" vertex="1">
                    <mxGeometry y="60" width="230" height="30" as="geometry"/>
                </mxCell>
                <mxCell id="RH9Z0IbQgSgg3mMqHIIC-15" value="FK1" style="shape=partialRectangle;overflow=hidden;connectable=0;fillColor=none;top=0;left=0;bottom=0;right=0;" parent="RH9Z0IbQgSgg3mMqHIIC-14" vertex="1">
                    <mxGeometry width="30" height="30" as="geometry"/>
                </mxCell>
                <mxCell id="RH9Z0IbQgSgg3mMqHIIC-16" value="iban int" style="shape=partialRectangle;overflow=hidden;connectable=0;fillColor=none;top=0;left=0;bottom=0;right=0;align=left;spacingLeft=6;" parent="RH9Z0IbQgSgg3mMqHIIC-14" vertex="1">
                    <mxGeometry x="30" width="200" height="30" as="geometry"/>
                </mxCell>
                <mxCell id="2" style="shape=partialRectangle;collapsible=0;dropTarget=0;pointerEvents=0;fillColor=none;points=[[0,0.5],[1,0.5]];portConstraint=eastwest;top=0;left=0;right=0;bottom=0;" vertex="1" parent="C-vyLk0tnHw3VtMMgP7b-23">
                    <mxGeometry y="90" width="230" height="30" as="geometry"/>
                </mxCell>
                <mxCell id="3" style="shape=partialRectangle;overflow=hidden;connectable=0;fillColor=none;top=0;left=0;bottom=0;right=0;" vertex="1" parent="2">
                    <mxGeometry width="30" height="30" as="geometry"/>
                </mxCell>
                <mxCell id="4" value="burgerseervicenummer char(9)" style="shape=partialRectangle;overflow=hidden;connectable=0;fillColor=none;top=0;left=0;bottom=0;right=0;align=left;spacingLeft=6;" vertex="1" parent="2">
                    <mxGeometry x="30" width="200" height="30" as="geometry"/>
                </mxCell>
                <mxCell id="XqIFykhKaimXrxazFcBB-10" style="shape=partialRectangle;collapsible=0;dropTarget=0;pointerEvents=0;fillColor=none;points=[[0,0.5],[1,0.5]];portConstraint=eastwest;top=0;left=0;right=0;bottom=0;" parent="C-vyLk0tnHw3VtMMgP7b-23" vertex="1">
                    <mxGeometry y="120" width="230" height="30" as="geometry"/>
                </mxCell>
                <mxCell id="XqIFykhKaimXrxazFcBB-11" style="shape=partialRectangle;overflow=hidden;connectable=0;fillColor=none;top=0;left=0;bottom=0;right=0;" parent="XqIFykhKaimXrxazFcBB-10" vertex="1">
                    <mxGeometry width="30" height="30" as="geometry"/>
                </mxCell>
                <mxCell id="XqIFykhKaimXrxazFcBB-12" value="telefoonnummer char(12)" style="shape=partialRectangle;overflow=hidden;connectable=0;fillColor=none;top=0;left=0;bottom=0;right=0;align=left;spacingLeft=6;" parent="XqIFykhKaimXrxazFcBB-10" vertex="1">
                    <mxGeometry x="30" width="200" height="30" as="geometry"/>
                </mxCell>
                <mxCell id="XqIFykhKaimXrxazFcBB-13" style="shape=partialRectangle;collapsible=0;dropTarget=0;pointerEvents=0;fillColor=none;points=[[0,0.5],[1,0.5]];portConstraint=eastwest;top=0;left=0;right=0;bottom=0;" parent="C-vyLk0tnHw3VtMMgP7b-23" vertex="1">
                    <mxGeometry y="150" width="230" height="30" as="geometry"/>
                </mxCell>
                <mxCell id="XqIFykhKaimXrxazFcBB-14" style="shape=partialRectangle;overflow=hidden;connectable=0;fillColor=none;top=0;left=0;bottom=0;right=0;" parent="XqIFykhKaimXrxazFcBB-13" vertex="1">
                    <mxGeometry width="30" height="30" as="geometry"/>
                </mxCell>
                <mxCell id="XqIFykhKaimXrxazFcBB-15" value="email char(250)" style="shape=partialRectangle;overflow=hidden;connectable=0;fillColor=none;top=0;left=0;bottom=0;right=0;align=left;spacingLeft=6;" parent="XqIFykhKaimXrxazFcBB-13" vertex="1">
                    <mxGeometry x="30" width="200" height="30" as="geometry"/>
                </mxCell>
                <mxCell id="XqIFykhKaimXrxazFcBB-21" style="shape=partialRectangle;collapsible=0;dropTarget=0;pointerEvents=0;fillColor=none;points=[[0,0.5],[1,0.5]];portConstraint=eastwest;top=0;left=0;right=0;bottom=0;" parent="C-vyLk0tnHw3VtMMgP7b-23" vertex="1">
                    <mxGeometry y="180" width="230" height="30" as="geometry"/>
                </mxCell>
                <mxCell id="XqIFykhKaimXrxazFcBB-22" style="shape=partialRectangle;overflow=hidden;connectable=0;fillColor=none;top=0;left=0;bottom=0;right=0;" parent="XqIFykhKaimXrxazFcBB-21" vertex="1">
                    <mxGeometry width="30" height="30" as="geometry"/>
                </mxCell>
                <mxCell id="XqIFykhKaimXrxazFcBB-23" value="geboortedatum date" style="shape=partialRectangle;overflow=hidden;connectable=0;fillColor=none;top=0;left=0;bottom=0;right=0;align=left;spacingLeft=6;" parent="XqIFykhKaimXrxazFcBB-21" vertex="1">
                    <mxGeometry x="30" width="200" height="30" as="geometry"/>
                </mxCell>
                <mxCell id="RH9Z0IbQgSgg3mMqHIIC-1" value="Iban" style="shape=table;startSize=30;container=1;collapsible=1;childLayout=tableLayout;fixedRows=1;rowLines=0;fontStyle=1;align=center;resizeLast=1;" parent="1" vertex="1">
                    <mxGeometry x="-825" y="-532.5" width="200" height="130" as="geometry"/>
                </mxCell>
                <mxCell id="RH9Z0IbQgSgg3mMqHIIC-2" value="" style="shape=partialRectangle;collapsible=0;dropTarget=0;pointerEvents=0;fillColor=none;top=0;left=0;bottom=1;right=0;points=[[0,0.5],[1,0.5]];portConstraint=eastwest;" parent="RH9Z0IbQgSgg3mMqHIIC-1" vertex="1">
                    <mxGeometry y="30" width="200" height="30" as="geometry"/>
                </mxCell>
                <mxCell id="RH9Z0IbQgSgg3mMqHIIC-3" value="PK" style="shape=partialRectangle;connectable=0;fillColor=none;top=0;left=0;bottom=0;right=0;fontStyle=1;overflow=hidden;" parent="RH9Z0IbQgSgg3mMqHIIC-2" vertex="1">
                    <mxGeometry width="30" height="30" as="geometry"/>
                </mxCell>
                <mxCell id="RH9Z0IbQgSgg3mMqHIIC-4" value="iban_id int NOT NULL" style="shape=partialRectangle;connectable=0;fillColor=none;top=0;left=0;bottom=0;right=0;align=left;spacingLeft=6;fontStyle=5;overflow=hidden;" parent="RH9Z0IbQgSgg3mMqHIIC-2" vertex="1">
                    <mxGeometry x="30" width="170" height="30" as="geometry"/>
                </mxCell>
                <mxCell id="RH9Z0IbQgSgg3mMqHIIC-5" value="" style="shape=partialRectangle;collapsible=0;dropTarget=0;pointerEvents=0;fillColor=none;top=0;left=0;bottom=0;right=0;points=[[0,0.5],[1,0.5]];portConstraint=eastwest;" parent="RH9Z0IbQgSgg3mMqHIIC-1" vertex="1">
                    <mxGeometry y="60" width="200" height="30" as="geometry"/>
                </mxCell>
                <mxCell id="RH9Z0IbQgSgg3mMqHIIC-6" value="" style="shape=partialRectangle;connectable=0;fillColor=none;top=0;left=0;bottom=0;right=0;editable=1;overflow=hidden;" parent="RH9Z0IbQgSgg3mMqHIIC-5" vertex="1">
                    <mxGeometry width="30" height="30" as="geometry"/>
                </mxCell>
                <mxCell id="RH9Z0IbQgSgg3mMqHIIC-7" value="iban char(34) NOT NULL" style="shape=partialRectangle;connectable=0;fillColor=none;top=0;left=0;bottom=0;right=0;align=left;spacingLeft=6;overflow=hidden;" parent="RH9Z0IbQgSgg3mMqHIIC-5" vertex="1">
                    <mxGeometry x="30" width="170" height="30" as="geometry"/>
                </mxCell>
                <mxCell id="RH9Z0IbQgSgg3mMqHIIC-8" value="" style="shape=partialRectangle;collapsible=0;dropTarget=0;pointerEvents=0;fillColor=none;top=0;left=0;bottom=0;right=0;points=[[0,0.5],[1,0.5]];portConstraint=eastwest;" parent="RH9Z0IbQgSgg3mMqHIIC-1" vertex="1">
                    <mxGeometry y="90" width="200" height="30" as="geometry"/>
                </mxCell>
                <mxCell id="RH9Z0IbQgSgg3mMqHIIC-9" value="" style="shape=partialRectangle;connectable=0;fillColor=none;top=0;left=0;bottom=0;right=0;editable=1;overflow=hidden;" parent="RH9Z0IbQgSgg3mMqHIIC-8" vertex="1">
                    <mxGeometry width="30" height="30" as="geometry"/>
                </mxCell>
                <mxCell id="RH9Z0IbQgSgg3mMqHIIC-10" value="naam char(??) NOT NULL" style="shape=partialRectangle;connectable=0;fillColor=none;top=0;left=0;bottom=0;right=0;align=left;spacingLeft=6;overflow=hidden;" parent="RH9Z0IbQgSgg3mMqHIIC-8" vertex="1">
                    <mxGeometry x="30" width="170" height="30" as="geometry"/>
                </mxCell>
                <mxCell id="RH9Z0IbQgSgg3mMqHIIC-45" value="Afspraak" style="shape=table;startSize=30;container=1;collapsible=1;childLayout=tableLayout;fixedRows=1;rowLines=0;fontStyle=1;align=center;resizeLast=1;" parent="1" vertex="1">
                    <mxGeometry x="-560" y="-535" width="230" height="160" as="geometry"/>
                </mxCell>
                <mxCell id="RH9Z0IbQgSgg3mMqHIIC-46" value="" style="shape=partialRectangle;collapsible=0;dropTarget=0;pointerEvents=0;fillColor=none;top=0;left=0;bottom=1;right=0;points=[[0,0.5],[1,0.5]];portConstraint=eastwest;" parent="RH9Z0IbQgSgg3mMqHIIC-45" vertex="1">
                    <mxGeometry y="30" width="230" height="30" as="geometry"/>
                </mxCell>
                <mxCell id="RH9Z0IbQgSgg3mMqHIIC-47" value="PK" style="shape=partialRectangle;connectable=0;fillColor=none;top=0;left=0;bottom=0;right=0;fontStyle=1;overflow=hidden;" parent="RH9Z0IbQgSgg3mMqHIIC-46" vertex="1">
                    <mxGeometry width="30" height="30" as="geometry"/>
                </mxCell>
                <mxCell id="RH9Z0IbQgSgg3mMqHIIC-48" value="afspraak_id int NOT NULL" style="shape=partialRectangle;connectable=0;fillColor=none;top=0;left=0;bottom=0;right=0;align=left;spacingLeft=6;fontStyle=5;overflow=hidden;" parent="RH9Z0IbQgSgg3mMqHIIC-46" vertex="1">
                    <mxGeometry x="30" width="200" height="30" as="geometry"/>
                </mxCell>
                <mxCell id="RH9Z0IbQgSgg3mMqHIIC-49" value="" style="shape=partialRectangle;collapsible=0;dropTarget=0;pointerEvents=0;fillColor=none;top=0;left=0;bottom=0;right=0;points=[[0,0.5],[1,0.5]];portConstraint=eastwest;" parent="RH9Z0IbQgSgg3mMqHIIC-45" vertex="1">
                    <mxGeometry y="60" width="230" height="30" as="geometry"/>
                </mxCell>
                <mxCell id="RH9Z0IbQgSgg3mMqHIIC-50" value="FK1" style="shape=partialRectangle;connectable=0;fillColor=none;top=0;left=0;bottom=0;right=0;editable=1;overflow=hidden;" parent="RH9Z0IbQgSgg3mMqHIIC-49" vertex="1">
                    <mxGeometry width="30" height="30" as="geometry"/>
                </mxCell>
                <mxCell id="RH9Z0IbQgSgg3mMqHIIC-51" value="gebruiker_id int NOT NULL" style="shape=partialRectangle;connectable=0;fillColor=none;top=0;left=0;bottom=0;right=0;align=left;spacingLeft=6;overflow=hidden;" parent="RH9Z0IbQgSgg3mMqHIIC-49" vertex="1">
                    <mxGeometry x="30" width="200" height="30" as="geometry"/>
                </mxCell>
                <mxCell id="RH9Z0IbQgSgg3mMqHIIC-52" value="" style="shape=partialRectangle;collapsible=0;dropTarget=0;pointerEvents=0;fillColor=none;top=0;left=0;bottom=0;right=0;points=[[0,0.5],[1,0.5]];portConstraint=eastwest;" parent="RH9Z0IbQgSgg3mMqHIIC-45" vertex="1">
                    <mxGeometry y="90" width="230" height="30" as="geometry"/>
                </mxCell>
                <mxCell id="RH9Z0IbQgSgg3mMqHIIC-53" value="FK2" style="shape=partialRectangle;connectable=0;fillColor=none;top=0;left=0;bottom=0;right=0;editable=1;overflow=hidden;" parent="RH9Z0IbQgSgg3mMqHIIC-52" vertex="1">
                    <mxGeometry width="30" height="30" as="geometry"/>
                </mxCell>
                <mxCell id="RH9Z0IbQgSgg3mMqHIIC-54" value="organisatie_id int NOT NULL" style="shape=partialRectangle;connectable=0;fillColor=none;top=0;left=0;bottom=0;right=0;align=left;spacingLeft=6;overflow=hidden;" parent="RH9Z0IbQgSgg3mMqHIIC-52" vertex="1">
                    <mxGeometry x="30" width="200" height="30" as="geometry"/>
                </mxCell>
                <mxCell id="RH9Z0IbQgSgg3mMqHIIC-55" value="" style="shape=partialRectangle;collapsible=0;dropTarget=0;pointerEvents=0;fillColor=none;top=0;left=0;bottom=0;right=0;points=[[0,0.5],[1,0.5]];portConstraint=eastwest;" parent="RH9Z0IbQgSgg3mMqHIIC-45" vertex="1">
                    <mxGeometry y="120" width="230" height="30" as="geometry"/>
                </mxCell>
                <mxCell id="RH9Z0IbQgSgg3mMqHIIC-56" value="FK3" style="shape=partialRectangle;connectable=0;fillColor=none;top=0;left=0;bottom=0;right=0;editable=1;overflow=hidden;" parent="RH9Z0IbQgSgg3mMqHIIC-55" vertex="1">
                    <mxGeometry width="30" height="30" as="geometry"/>
                </mxCell>
                <mxCell id="RH9Z0IbQgSgg3mMqHIIC-57" value="organisatie_iban int NOT NULL" style="shape=partialRectangle;connectable=0;fillColor=none;top=0;left=0;bottom=0;right=0;align=left;spacingLeft=6;overflow=hidden;" parent="RH9Z0IbQgSgg3mMqHIIC-55" vertex="1">
                    <mxGeometry x="30" width="200" height="30" as="geometry"/>
                </mxCell>
                <mxCell id="RH9Z0IbQgSgg3mMqHIIC-58" value="Organisatie" style="shape=table;startSize=30;container=1;collapsible=1;childLayout=tableLayout;fixedRows=1;rowLines=0;fontStyle=1;align=center;resizeLast=1;" parent="1" vertex="1">
                    <mxGeometry x="-262.5" y="-530" width="215" height="100" as="geometry"/>
                </mxCell>
                <mxCell id="RH9Z0IbQgSgg3mMqHIIC-59" value="" style="shape=partialRectangle;collapsible=0;dropTarget=0;pointerEvents=0;fillColor=none;top=0;left=0;bottom=1;right=0;points=[[0,0.5],[1,0.5]];portConstraint=eastwest;" parent="RH9Z0IbQgSgg3mMqHIIC-58" vertex="1">
                    <mxGeometry y="30" width="215" height="30" as="geometry"/>
                </mxCell>
                <mxCell id="RH9Z0IbQgSgg3mMqHIIC-60" value="PK" style="shape=partialRectangle;connectable=0;fillColor=none;top=0;left=0;bottom=0;right=0;fontStyle=1;overflow=hidden;" parent="RH9Z0IbQgSgg3mMqHIIC-59" vertex="1">
                    <mxGeometry width="30" height="30" as="geometry"/>
                </mxCell>
                <mxCell id="RH9Z0IbQgSgg3mMqHIIC-61" value="organisatie_id int NOT NULL" style="shape=partialRectangle;connectable=0;fillColor=none;top=0;left=0;bottom=0;right=0;align=left;spacingLeft=6;fontStyle=5;overflow=hidden;" parent="RH9Z0IbQgSgg3mMqHIIC-59" vertex="1">
                    <mxGeometry x="30" width="185" height="30" as="geometry"/>
                </mxCell>
                <mxCell id="RH9Z0IbQgSgg3mMqHIIC-62" value="" style="shape=partialRectangle;collapsible=0;dropTarget=0;pointerEvents=0;fillColor=none;top=0;left=0;bottom=0;right=0;points=[[0,0.5],[1,0.5]];portConstraint=eastwest;" parent="RH9Z0IbQgSgg3mMqHIIC-58" vertex="1">
                    <mxGeometry y="60" width="215" height="30" as="geometry"/>
                </mxCell>
                <mxCell id="RH9Z0IbQgSgg3mMqHIIC-63" value="" style="shape=partialRectangle;connectable=0;fillColor=none;top=0;left=0;bottom=0;right=0;editable=1;overflow=hidden;" parent="RH9Z0IbQgSgg3mMqHIIC-62" vertex="1">
                    <mxGeometry width="30" height="30" as="geometry"/>
                </mxCell>
                <mxCell id="RH9Z0IbQgSgg3mMqHIIC-64" value="naam char(250) NOT NULL" style="shape=partialRectangle;connectable=0;fillColor=none;top=0;left=0;bottom=0;right=0;align=left;spacingLeft=6;overflow=hidden;" parent="RH9Z0IbQgSgg3mMqHIIC-62" vertex="1">
                    <mxGeometry x="30" width="185" height="30" as="geometry"/>
                </mxCell>
                <mxCell id="XqIFykhKaimXrxazFcBB-16" value="" style="endArrow=none;html=1;fillColor=#f8cecc;strokeColor=#b85450;" parent="1" edge="1">
                    <mxGeometry width="50" height="50" relative="1" as="geometry">
                        <mxPoint x="-830" y="-630" as="sourcePoint"/>
                        <mxPoint x="-40" y="-630" as="targetPoint"/>
                    </mxGeometry>
                </mxCell>
                <mxCell id="XqIFykhKaimXrxazFcBB-17" value="Todo: refine services" style="text;html=1;strokeColor=none;fillColor=none;align=center;verticalAlign=middle;whiteSpace=wrap;rounded=0;dashed=1;" parent="1" vertex="1">
                    <mxGeometry x="-830" y="-630" width="120" height="20" as="geometry"/>
                </mxCell>
            </root>
        </mxGraphModel>
    </diagram>
</mxfile>